<?xml version="1.0" encoding="UTF-8" standalone="no"?>
<svg
   width="16"
   height="16"
   version="1.1"
   id="svg14169"
   sodipodi:docname="org.gnome.gitlab.bazylevnik0.Convolution-symbolic.svg"
   inkscape:version="1.2.2 (732a01da63, 2022-12-09, custom)"
   xmlns:inkscape="http://www.inkscape.org/namespaces/inkscape"
   xmlns:sodipodi="http://sodipodi.sourceforge.net/DTD/sodipodi-0.dtd"
   xmlns="http://www.w3.org/2000/svg"
   xmlns:svg="http://www.w3.org/2000/svg">
  <defs
     id="defs14173" />
  <sodipodi:namedview
     id="namedview14171"
     pagecolor="#ffffff"
     bordercolor="#000000"
     borderopacity="0.25"
     inkscape:showpageshadow="2"
     inkscape:pageopacity="0.0"
     inkscape:pagecheckerboard="0"
     inkscape:deskcolor="#d1d1d1"
     showgrid="false"
     inkscape:zoom="48.1875"
     inkscape:cx="7.6783398"
     inkscape:cy="8.1660182"
     inkscape:window-width="1920"
     inkscape:window-height="1009"
     inkscape:window-x="0"
     inkscape:window-y="0"
     inkscape:window-maximized="1"
     inkscape:current-layer="svg14169" />
  <g
     color="#000000"
     fill="#2e3436"
     id="g14167"
     transform="rotate(45,8.0005,8)">
    <path
       d="M 7.188,2.281 C 7.094,2.337 6.996,2.406 6.898,2.471 L 5.566,3.803 a 1.684,1.684 0 1 1 -2.17,2.17 L 2.332,7.037 C 2.838,6.968 3.349,6.901 3.532,7.063 3.774,7.277 3.671,8.094 3.687,8.719 3.9,8.807 4.114,8.89 4.344,8.938 c 0.04,0.008 0.085,-0.007 0.125,0 0.337,-0.525 0.683,-1.288 1,-1.344 0.322,-0.057 0.905,0.562 1.406,0.937 A 3.67,3.67 0 0 0 7.531,8.063 C 7.336,7.468 6.937,6.694 7.094,6.406 7.252,6.116 8.113,6.036 8.719,5.875 8.747,5.692 8.781,5.504 8.781,5.313 8.781,5.238 8.754,5.167 8.75,5.093 8.163,4.876 7.315,4.708 7.188,4.406 7.06,4.104 7.528,3.385 7.781,2.813 A 3.722,3.722 0 0 0 7.188,2.281 Z m 3.875,3.25 C 10.898,6.006 10.758,6.617 10.593,7.094 10.163,7.141 9.753,7.234 9.375,7.406 8.995,7.084 8.588,6.633 8.219,6.313 A 5.562,5.562 0 0 0 7.531,6.781 C 7.708,7.241 7.984,7.782 8.156,8.25 7.858,8.559 7.625,8.92 7.437,9.313 6.943,9.313 6.335,9.229 5.844,9.219 a 5.68,5.68 0 0 0 -0.219,0.812 c 0.435,0.24 1.006,0.468 1.438,0.72 -0.006,0.093 -0.032,0.185 -0.032,0.28 0,0.333 0.049,0.66 0.125,0.97 -0.382,0.304 -0.898,0.63 -1.28,0.937 0.015,0.044 0.04,0.083 0.058,0.127 l 0.613,0.613 c 0.417,-0.1 0.868,-0.223 1.266,-0.303 0.248,0.343 0.532,0.626 0.875,0.875 -0.027,0.135 -0.068,0.283 -0.104,0.428 0.174,-0.063 0.34,-0.155 0.482,-0.297 l 1.432,-1.432 a 1.994,1.994 0 0 1 0.533,-3.918 c 0.919,0 1.684,0.623 1.918,1.467 L 14.287,9.16 c 0.06,-0.06 0.11,-0.124 0.156,-0.191 -0.035,-0.062 -0.06,-0.13 -0.1,-0.188 0.096,-0.152 0.205,-0.31 0.315,-0.47 0.017,-0.348 -0.1,-0.7 -0.37,-0.971 L 14.111,7.164 C 13.831,7.356 13.55,7.551 13.281,7.719 12.936,7.486 12.535,7.336 12.125,7.219 12.048,6.712 12.018,6.087 11.938,5.594 A 5.44,5.44 0 0 0 11.063,5.531 Z M 1.816,6.139 C 1.729,6.207 1.643,6.277 1.562,6.344 l 0.014,0.035 z"
       style="marker:none"
       overflow="visible"
       id="path14163" />
    <path
       d="m 8.707,0.293 a 1,1 0 0 0 -1.415,0 l -6.999,7 a 1,1 0 0 0 0,1.413 l 7,7.001 a 1,1 0 0 0 1.415,0 l 7,-7 a 1,1 0 0 0 0,-1.413 z M 7.999,2.414 13.586,8.001 8,13.586 2.414,7.999 Z"
       style="line-height:normal;font-variant-ligatures:normal;font-variant-position:normal;font-variant-caps:normal;font-variant-numeric:normal;font-variant-alternates:normal;font-feature-settings:normal;text-indent:0;text-align:start;text-decoration-line:none;text-decoration-style:solid;text-decoration-color:#000000;text-transform:none;text-orientation:mixed;shape-padding:0;isolation:auto;mix-blend-mode:normal;marker:none"
       font-weight="400"
       font-family="sans-serif"
       overflow="visible"
       id="path14165" />
  </g>
  <rect
     style="fill:#2e3436;fill-opacity:1;stroke:none;stroke-width:7.4359;stroke-linecap:square;stroke-linejoin:round"
     id="rect14707"
     width="9.60324"
     height="9.031004"
     x="3.3255274"
     y="3.3618531"
     ry="0"
     rx="0" />
  <path
     style="fill:#2e3436;fill-opacity:1;stroke:#ffffff;stroke-width:1.62024;stroke-linecap:square;stroke-linejoin:round;stroke-dasharray:none;stroke-opacity:1"
     d="M 4.8136883,11.570198 V 4.5400177 h 6.0124067"
     id="path15333" />
  <circle
     style="fill:#ffffff;fill-opacity:1;stroke:#ffffff;stroke-width:2;stroke-linecap:square;stroke-linejoin:round;stroke-dasharray:none;stroke-opacity:1"
     id="path15603"
     cx="9.490799"
     cy="9.6188793"
     r="1.8779588" />
</svg>
